<svg width="30" height="30" viewBox="0 0 30 30" fill="none" xmlns="http://www.w3.org/2000/svg">
<path fill-rule="evenodd" clip-rule="evenodd" d="M30 28.7501C30 29.0816 29.8683 29.3995 29.6339 29.6339C29.3995 29.8683 29.0816 30 28.7501 30H13.7509C13.4194 30 13.1014 29.8683 12.867 29.6339C12.6326 29.3995 12.5009 29.0816 12.5009 28.7501C12.5009 28.4186 12.6326 28.1006 12.867 27.8662C13.1014 27.6318 13.4194 27.5001 13.7509 27.5001H25.7327L0.366559 2.13647C0.250346 2.02025 0.15816 1.88229 0.0952659 1.73045C0.0323714 1.57861 1.22451e-09 1.41586 0 1.25151C-1.22451e-09 1.08716 0.0323714 0.92442 0.0952659 0.77258C0.15816 0.620739 0.250346 0.482773 0.366559 0.366559C0.482773 0.250346 0.620739 0.15816 0.77258 0.0952659C0.92442 0.0323714 1.08716 -1.22451e-09 1.25151 0C1.41586 1.22451e-09 1.57861 0.0323714 1.73045 0.0952659C1.88229 0.15816 2.02025 0.250346 2.13647 0.366559L27.5001 25.7327V13.7509C27.5001 13.4194 27.6318 13.1014 27.8662 12.867C28.1006 12.6326 28.4186 12.5009 28.7501 12.5009C29.0816 12.5009 29.3995 12.6326 29.6339 12.867C29.8683 13.1014 30 13.4194 30 13.7509V28.7501Z" fill="#8943FA"/>
</svg>
