<svg width="38" height="38" viewBox="0 0 38 38" fill="none" xmlns="http://www.w3.org/2000/svg">
<path d="M19 38C13.9609 38 9.12816 35.9982 5.56497 32.435C2.00178 28.8718 -1.2205e-06 24.0391 -1.66103e-06 19C-2.10157e-06 13.9609 2.00178 9.12816 5.56497 5.56497C9.12816 2.00178 13.9609 2.10157e-06 19 1.66103e-06C24.0391 1.2205e-06 28.8718 2.00178 32.435 5.56497C35.9982 9.12816 38 13.9609 38 19C38 24.0391 35.9982 28.8718 32.435 32.435C28.8718 35.9982 24.0391 38 19 38V38ZM27.3125 20.1875C27.6274 20.1875 27.9295 20.0624 28.1522 19.8397C28.3749 19.617 28.5 19.3149 28.5 19C28.5 18.6851 28.3749 18.383 28.1522 18.1603C27.9295 17.9376 27.6274 17.8125 27.3125 17.8125L13.5541 17.8125L18.6532 12.7158C18.7637 12.6053 18.8512 12.4743 18.911 12.33C18.9707 12.1858 19.0015 12.0311 19.0015 11.875C19.0015 11.7189 18.9707 11.5642 18.911 11.42C18.8512 11.2757 18.7637 11.1447 18.6532 11.0343C18.5428 10.9238 18.4118 10.8363 18.2675 10.7765C18.1233 10.7168 17.9686 10.686 17.8125 10.686C17.6564 10.686 17.5017 10.7168 17.3575 10.7765C17.2132 10.8363 17.0822 10.9238 16.9717 11.0343L9.84675 18.1593C9.73616 18.2696 9.64842 18.4006 9.58856 18.5449C9.52869 18.6891 9.49788 18.8438 9.49788 19C9.49788 19.1562 9.52869 19.3109 9.58856 19.4551C9.64842 19.5994 9.73616 19.7304 9.84675 19.8408L16.9717 26.9658C17.0822 27.0762 17.2132 27.1637 17.3575 27.2235C17.5017 27.2832 17.6564 27.314 17.8125 27.314C17.9686 27.314 18.1233 27.2832 18.2675 27.2235C18.4118 27.1637 18.5428 27.0762 18.6532 26.9658C18.7637 26.8553 18.8512 26.7243 18.911 26.58C18.9707 26.4358 19.0015 26.2811 19.0015 26.125C19.0015 25.9689 18.9707 25.8142 18.911 25.67C18.8512 25.5257 18.7637 25.3947 18.6532 25.2843L13.5541 20.1875L27.3125 20.1875Z" fill="white"/>
</svg>
