<svg width="27" height="26" viewBox="0 0 27 26" fill="#BE98FC" xmlns="http://www.w3.org/2000/svg">
<path d="M9.79572 0C8.35938 0 8.18389 2.08696 9.60006 2.32683C10.8983 2.54671 10.9027 4.41029 9.60549 4.63628L7.68131 4.9715C6.7694 5.13036 6.21485 6.06606 6.5133 6.94226L6.67648 7.4213C7.01304 8.40939 6.50739 9.48666 5.53225 9.85907L3.23232 10.7374C-1.27482 12.4587 -0.27082 19.1058 4.54363 19.4192L13.3524 19.9924C13.8493 20.0248 14.3407 20.1148 14.8168 20.2607L22.4359 22.5959C23.0523 22.7848 23.5093 23.3056 23.6166 23.9414C23.9641 26.0016 27.0002 25.7473 27.0002 23.658V0H9.79572Z"/>
</svg>
