<svg width="38" height="38" viewBox="0 0 38 38" fill="white" xmlns="http://www.w3.org/2000/svg">
<path d="M38 19C38 24.0391 35.9982 28.8718 32.435 32.435C28.8718 35.9982 24.0391 38 19 38C13.9609 38 9.12816 35.9982 5.56497 32.435C2.00178 28.8718 0 24.0391 0 19C0 13.9609 2.00178 9.12816 5.56497 5.56497C9.12816 2.00178 13.9609 0 19 0C24.0391 0 28.8718 2.00178 32.435 5.56497C35.9982 9.12816 38 13.9609 38 19ZM12.7157 11.0343C12.4928 10.8113 12.1903 10.686 11.875 10.686C11.5597 10.686 11.2572 10.8113 11.0343 11.0343C10.8113 11.2572 10.686 11.5597 10.686 11.875C10.686 12.1903 10.8113 12.4928 11.0343 12.7157L17.3209 19L11.0343 25.2843C10.9238 25.3947 10.8363 25.5257 10.7765 25.67C10.7168 25.8142 10.686 25.9689 10.686 26.125C10.686 26.2811 10.7168 26.4358 10.7765 26.58C10.8363 26.7243 10.9238 26.8553 11.0343 26.9657C11.2572 27.1887 11.5597 27.314 11.875 27.314C12.0311 27.314 12.1858 27.2832 12.33 27.2235C12.4743 27.1637 12.6053 27.0762 12.7157 26.9657L19 20.6791L25.2843 26.9657C25.3947 27.0762 25.5257 27.1637 25.67 27.2235C25.8142 27.2832 25.9689 27.314 26.125 27.314C26.2811 27.314 26.4358 27.2832 26.58 27.2235C26.7243 27.1637 26.8553 27.0762 26.9657 26.9657C27.0762 26.8553 27.1637 26.7243 27.2235 26.58C27.2832 26.4358 27.314 26.2811 27.314 26.125C27.314 25.9689 27.2832 25.8142 27.2235 25.67C27.1637 25.5257 27.0762 25.3947 26.9657 25.2843L20.6791 19L26.9657 12.7157C27.0762 12.6053 27.1637 12.4743 27.2235 12.33C27.2832 12.1858 27.314 12.0311 27.314 11.875C27.314 11.7189 27.2832 11.5642 27.2235 11.42C27.1637 11.2757 27.0762 11.1447 26.9657 11.0343C26.8553 10.9238 26.7243 10.8363 26.58 10.7765C26.4358 10.7168 26.2811 10.686 26.125 10.686C25.9689 10.686 25.8142 10.7168 25.67 10.7765C25.5257 10.8363 25.3947 10.9238 25.2843 11.0343L19 17.3209L12.7157 11.0343Z"/>
</svg>
