<svg width="38" height="38" viewBox="0 0 38 38" xmlns="http://www.w3.org/2000/svg">
<path fill-rule="evenodd" clip-rule="evenodd" d="M19 38C29.4934 38 38 29.4934 38 19C38 8.50659 29.4934 0 19 0C8.50659 0 0 8.50659 0 19C0 29.4934 8.50659 38 19 38ZM15.1749 21.5399C15.3495 21.5399 15.5169 21.606 15.6403 21.7235C15.7637 21.8411 15.8331 22.0005 15.8331 22.1668C15.8331 22.333 15.7637 22.4925 15.6403 22.61L10.2475 27.7461H13.8918C14.0664 27.7461 14.2339 27.8121 14.3573 27.9297C14.4808 28.0473 14.5502 28.2068 14.5502 28.373C14.5502 28.5393 14.4808 28.6988 14.3573 28.8164C14.2339 28.9339 14.0664 29 13.8918 29H8.65831C8.48371 29 8.31627 28.9339 8.19281 28.8164C8.06936 28.6988 8 28.5393 8 28.373V23.3887C8 23.2224 8.06936 23.063 8.19281 22.9454C8.31627 22.8278 8.48371 22.7618 8.65831 22.7618C8.8329 22.7618 9.00034 22.8278 9.1238 22.9454C9.24726 23.063 9.31661 23.2224 9.31661 23.3887V26.8596L14.7095 21.7235C14.8329 21.606 15.0003 21.5399 15.1749 21.5399ZM21.8251 21.5399C21.6506 21.5399 21.4831 21.606 21.3597 21.7235C21.2363 21.8411 21.1669 22.0005 21.1669 22.1668C21.1669 22.333 21.2363 22.4925 21.3597 22.61L26.7525 27.7461H23.1082C22.9336 27.7461 22.7661 27.8121 22.6427 27.9297C22.5192 28.0473 22.4498 28.2068 22.4498 28.373C22.4498 28.5393 22.5192 28.6988 22.6427 28.8164C22.7661 28.9339 22.9336 29 23.1082 29H28.3417C28.5163 29 28.6837 28.9339 28.8072 28.8164C28.9306 28.6988 29 28.5393 29 28.373V23.3887C29 23.2224 28.9306 23.063 28.8072 22.9454C28.6837 22.8278 28.5163 22.7618 28.3417 22.7618C28.1671 22.7618 27.9997 22.8278 27.8762 22.9454C27.7527 23.063 27.6834 23.2224 27.6834 23.3887V26.8596L22.2905 21.7235C22.1671 21.606 21.9997 21.5399 21.8251 21.5399ZM21.8251 16.4601C21.6506 16.4601 21.4831 16.394 21.3597 16.2765C21.2363 16.1589 21.1669 15.9995 21.1669 15.8332C21.1669 15.667 21.2363 15.5075 21.3597 15.39L26.7525 10.2539H23.1082C22.9336 10.2539 22.7661 10.1879 22.6427 10.0703C22.5192 9.95271 22.4498 9.79324 22.4498 9.62696C22.4498 9.46068 22.5192 9.30121 22.6427 9.18363C22.7661 9.06605 22.9336 9 23.1082 9H28.3417C28.5163 9 28.6837 9.06605 28.8072 9.18363C28.9306 9.30121 29 9.46068 29 9.62696V14.6113C29 14.7776 28.9306 14.937 28.8072 15.0546C28.6837 15.1722 28.5163 15.2382 28.3417 15.2382C28.1671 15.2382 27.9997 15.1722 27.8762 15.0546C27.7527 14.937 27.6834 14.7776 27.6834 14.6113V11.1404L22.2905 16.2765C22.1671 16.394 21.9997 16.4601 21.8251 16.4601ZM15.1749 16.4601C15.3495 16.4601 15.5169 16.394 15.6403 16.2765C15.7637 16.1589 15.8331 15.9995 15.8331 15.8332C15.8331 15.667 15.7637 15.5075 15.6403 15.39L10.2475 10.2539H13.8918C14.0664 10.2539 14.2339 10.1879 14.3573 10.0703C14.4808 9.95271 14.5502 9.79324 14.5502 9.62696C14.5502 9.46068 14.4808 9.30121 14.3573 9.18363C14.2339 9.06605 14.0664 9 13.8918 9H8.65831C8.48371 9 8.31627 9.06605 8.19281 9.18363C8.06936 9.30121 8 9.46068 8 9.62696V14.6113C8 14.7776 8.06936 14.937 8.19281 15.0546C8.31627 15.1722 8.48371 15.2382 8.65831 15.2382C8.8329 15.2382 9.00034 15.1722 9.1238 15.0546C9.24726 14.937 9.31661 14.7776 9.31661 14.6113V11.1404L14.7095 16.2765C14.8329 16.394 15.0003 16.4601 15.1749 16.4601Z"/>
</svg>
