<svg width="9" height="9" viewBox="0 0 9 9" fill="#8B919E" xmlns="http://www.w3.org/2000/svg">
<path d="M0.351484 0.852791C0.318535 0.819842 0.292399 0.780727 0.274568 0.737678C0.256736 0.694629 0.247559 0.648489 0.247559 0.601893C0.247559 0.555297 0.256736 0.509157 0.274568 0.466108C0.292399 0.423059 0.318535 0.383944 0.351484 0.350995C0.384432 0.318047 0.423547 0.291911 0.466597 0.27408C0.509646 0.256248 0.555785 0.24707 0.602381 0.24707C0.648977 0.24707 0.695117 0.256248 0.738166 0.27408C0.781215 0.291911 0.820331 0.318047 0.853279 0.350995L4.50051 3.99893L8.14773 0.350995C8.18068 0.318047 8.2198 0.291911 8.26285 0.27408C8.3059 0.256248 8.35204 0.24707 8.39863 0.24707C8.44523 0.24707 8.49137 0.256248 8.53442 0.27408C8.57747 0.291911 8.61658 0.318047 8.64953 0.350995C8.68248 0.383944 8.70861 0.423059 8.72645 0.466108C8.74428 0.509157 8.75345 0.555297 8.75345 0.601893C8.75345 0.648489 8.74428 0.694629 8.72645 0.737678C8.70861 0.780727 8.68248 0.819842 8.64953 0.852791L5.00159 4.50002L8.64953 8.14725C8.68248 8.18019 8.70861 8.21931 8.72645 8.26236C8.74428 8.30541 8.75345 8.35155 8.75345 8.39814C8.75345 8.44474 8.74428 8.49088 8.72645 8.53393C8.70861 8.57698 8.68248 8.61609 8.64953 8.64904C8.61658 8.68199 8.57747 8.70813 8.53442 8.72596C8.49137 8.74379 8.44523 8.75297 8.39863 8.75297C8.35204 8.75297 8.3059 8.74379 8.26285 8.72596C8.2198 8.70813 8.18068 8.68199 8.14773 8.64904L4.50051 5.0011L0.853279 8.64904C0.820331 8.68199 0.781215 8.70813 0.738166 8.72596C0.695117 8.74379 0.648977 8.75297 0.602381 8.75297C0.555785 8.75297 0.509646 8.74379 0.466597 8.72596C0.423547 8.70813 0.384432 8.68199 0.351484 8.64904C0.318535 8.61609 0.292399 8.57698 0.274568 8.53393C0.256736 8.49088 0.247559 8.44474 0.247559 8.39814C0.247559 8.35155 0.256736 8.30541 0.274568 8.26236C0.292399 8.21931 0.318535 8.18019 0.351484 8.14725L3.99942 4.50002L0.351484 0.852791Z"/>
</svg>
