<svg width="17" height="12" viewBox="0 0 17 12" fill="#8943FA" xmlns="http://www.w3.org/2000/svg">
<path d="M16.417 0.347899C16.4802 0.410976 16.5304 0.485908 16.5646 0.568404C16.5988 0.6509 16.6165 0.73934 16.6165 0.828656C16.6165 0.917973 16.5988 1.00641 16.5646 1.08891C16.5304 1.1714 16.4802 1.24634 16.417 1.30941L6.91048 10.8159C6.8474 10.8791 6.77247 10.9293 6.68998 10.9635C6.60748 10.9978 6.51904 11.0154 6.42972 11.0154C6.34041 11.0154 6.25197 10.9978 6.16947 10.9635C6.08698 10.9293 6.01204 10.8791 5.94897 10.8159L1.19572 6.06266C1.06821 5.93516 0.996582 5.76222 0.996582 5.5819C0.996582 5.40159 1.06821 5.22865 1.19572 5.10115C1.32322 4.97364 1.49616 4.90201 1.67648 4.90201C1.85679 4.90201 2.02973 4.97364 2.15723 5.10115L6.42972 9.375L15.4555 0.347899C15.5185 0.284663 15.5935 0.234492 15.676 0.20026C15.7585 0.166028 15.8469 0.148407 15.9362 0.148407C16.0255 0.148407 16.114 0.166028 16.1965 0.20026C16.279 0.234492 16.3539 0.284663 16.417 0.347899Z"/>
</svg>
